# xmcd
#
# Track frame offsets:
#	150
#	13567
#	22810
#	33422
#	43475
#	58345
#	69522
#	78072
#	88405
#	99892
#	110765
#	128285
#	141720
#	151747
#	162005
#	176620
#	187795
#	202235
#	213932
#	225922
#
# Disc length: 3173
#
# Revision: 1
# Processed by: cddbd v1.5.1PL0 Copyright (c) Steve Scherf et al.
# Submitted via: CDex 1.51
# Normalized: r0:TDELIM( - ),TSWAP
#
DISCID=040c6314
DTITLE=Various Artist - Country Collection
DYEAR=1989
DGENRE=Country
TTITLE0=Percy Sedge - When A Man Loves A woman
TTITLE1=Micky Gilley - In The Want Ads
TTITLE2=Lyn Anderson - Silver Threads and Golden Needles
TTITLE3=Faron Young - If You Ain't Lovin' You Ain't Livin'
TTITLE4=Jeanne C Riley - Harper Valley PTA
TTITLE5=Reg Lindsay - Don't It Make My Brown Eyes Blue
TTITLE6=Anne Murray - Some Birds
TTITLE7=Hank Locklin - These Arms You Push Away
TTITLE8=Sammi Smith - Help Me Make It Through The Night
TTITLE9=Johnny Paycheck - Heartbreak Tennessee
TTITLE10=Marty Robins - The Dreamer
TTITLE11=Don Williams - Where Do We Go From Here
TTITLE12=Patsy Cline - Three Cigarettes In An Ashtray
TTITLE13=Warner Mack - Sitting In An All Night Cafe
TTITLE14=Gatlin Brothers - Teach Me Lord
TTITLE15=Kitty Wells - It Wasn't God Who Made Honky Tonk Angles
TTITLE16=B J Thomas - I'm So Lonesome I Could Cry
TTITLE17=Dolly Parton - Two Little Orphans
TTITLE18=Johnny Lee - Victims Of The Pretty Things In Life
TTITLE19=Willie Nelson - Shelter Of Your Arms
EXTD=YEAR: 1989
EXTT0=
EXTT1=
EXTT2=
EXTT3=
EXTT4=
EXTT5=
EXTT6=
EXTT7=
EXTT8=
EXTT9=
EXTT10=
EXTT11=
EXTT12=
EXTT13=
EXTT14=
EXTT15=
EXTT16=
EXTT17=
EXTT18=
EXTT19=
PLAYORDER=
